# xmcd CD database file
#
# Track frame offsets:
#	150
#	47707
#	86678
#	135994
#	181204
#	203937
#	241866
#	265861
#
# Disc length: 4000 seconds
#
# Revision: 0
# Processed by: cddbd v1.5.2PL0 Copyright (c) Steve Scherf et al.
# Submitted via: CDex 1.78
#
DISCID=650f9e08
DTITLE=Om Kalsoum  - The grand melodies of Om Kalsoum
DYEAR=2009
DGENRE=Arabic
TTITLE0=Houwwa sahih il hawa gallab
TTITLE1=Ha akbalak boukra
TTITLE2=Al amal
TTITLE3=Ghannili shiwayyi shiwayyi
TTITLE4=Habib yisaad awkatou
TTITLE5=Lissa fakir
TTITLE6=Il wardi gamil
TTITLE7=Ana fi intizarak
EXTD=YEAR: 2009
EXTT0=
EXTT1=
EXTT2=
EXTT3=
EXTT4=
EXTT5=
EXTT6=
EXTT7=
PLAYORDER=
